{
    "accessors": [
        {
            "bufferView": 2,
            "byteOffset": 0,
            "componentType": 5126,
            "count": 192,
            "max": [
                1.0,
                1.0,
                1.0
            ],
            "min": [
                -1.0,
                -1.0,
                -1.0
            ],
            "name": "accessor_buffer_Cylinder.001_0",
            "type": "VEC3"
        },
        {
            "bufferView": 1,
            "byteOffset": 0,
            "componentType": 5123,
            "count": 372,
            "max": [
                191
            ],
            "min": [
                0
            ],
            "name": "accessor_buffer_Cylinder_2",
            "type": "SCALAR"
        },
        {
            "bufferView": 0,
            "byteOffset": 0,
            "componentType": 5126,
            "count": 192,
            "max": [
                1.0,
                1.0,
                1.0
            ],
            "min": [
                -1.0,
                -1.0,
                -1.0
            ],
            "name": "accessor_buffer_Cylinder_0",
            "type": "VEC3"
        },
        {
            "bufferView": 3,
            "byteOffset": 0,
            "componentType": 5123,
            "count": 372,
            "max": [
                191
            ],
            "min": [
                0
            ],
            "name": "accessor_buffer_Cylinder.001_2",
            "type": "SCALAR"
        },
        {
            "bufferView": 0,
            "byteOffset": 12,
            "componentType": 5126,
            "count": 192,
            "max": [
                0.9951847195625305,
                0.9951847791671753,
                1.0
            ],
            "min": [
                -0.9951847791671753,
                -0.9951847195625305,
                -1.0
            ],
            "name": "accessor_buffer_Cylinder_1",
            "type": "VEC3"
        },
        {
            "bufferView": 2,
            "byteOffset": 12,
            "componentType": 5126,
            "count": 192,
            "max": [
                0.9951847195625305,
                0.9951847791671753,
                1.0
            ],
            "min": [
                -0.9951847791671753,
                -0.9951847195625305,
                -1.0
            ],
            "name": "accessor_buffer_Cylinder.001_1",
            "type": "VEC3"
        }
    ],
    "asset": {
        "version": "2.0"
    },
    "bufferViews": [
        {
            "buffer": 0,
            "byteLength": 4608,
            "byteOffset": 0,
            "byteStride": 24,
            "name": "bufferView_buffer_Cylinder_0",
            "target": 34962
        },
        {
            "buffer": 0,
            "byteLength": 744,
            "byteOffset": 4608,
            "name": "bufferView_buffer_Cylinder_1",
            "target": 34963
        },
        {
            "buffer": 0,
            "byteLength": 4608,
            "byteOffset": 5352,
            "byteStride": 24,
            "name": "bufferView_buffer_Cylinder.001_0",
            "target": 34962
        },
        {
            "buffer": 0,
            "byteLength": 744,
            "byteOffset": 9960,
            "name": "bufferView_buffer_Cylinder.001_1",
            "target": 34963
        }
    ],
    "buffers": [
        {
            "byteLength": 10704,
            "name": "buffer_combined",
            "uri": "buffer_combined.bin"
        }
    ],
    "cameras": [
        {
            "name": "Camera",
            "perspective": {
                "aspectRatio": 1.703595982340029,
                "yfov": 0.5033799409866333,
                "zfar": 100.0,
                "znear": 0.10000000149011612
            },
            "type": "perspective"
        }
    ],
    "meshes": [
        {
            "name": "Cylinder",
            "primitives": [
                {
                    "attributes": {
                        "NORMAL": 4,
                        "POSITION": 2
                    },
                    "indices": 1,
                    "mode": 4
                }
            ]
        },
        {
            "name": "Cylinder.001",
            "primitives": [
                {
                    "attributes": {
                        "NORMAL": 5,
                        "POSITION": 0
                    },
                    "indices": 3,
                    "mode": 4
                }
            ]
        }
    ],
    "nodes": [
        {
            "camera": 0,
            "name": "Camera",
            "rotation": [
                0.483536034822464,
                0.20870360732078552,
                0.33687159419059753,
                0.7804827094078064
            ],
            "scale": [
                1.0,
                1.0,
                1.0
            ],
            "translation": [
                7.481131553649902,
                -6.5076398849487305,
                5.34366512298584
            ]
        },
        {
            "mesh": 0,
            "name": "Cylinder",
            "rotation": [
                0.0,
                0.0,
                0.0,
                1.0
            ],
            "scale": [
                1.0,
                1.0,
                1.0
            ],
            "translation": [
                -4.036495685577393,
                0.32060864567756653,
                1.1626603603363037
            ]
        },
        {
            "mesh": 1,
            "name": "Cylinder.001",
            "rotation": [
                0.0,
                0.0,
                0.0,
                1.0
            ],
            "scale": [
                1.0,
                1.0,
                1.0
            ],
            "translation": [
                2.015951633453369,
                0.5796899199485779,
                1.8824524879455566
            ]
        },
        {
            "name": "Lamp",
            "rotation": [
                0.16907575726509094,
                0.27217137813568115,
                0.7558802962303162,
                0.570947527885437
            ],
            "scale": [
                1.0,
                0.9999999403953552,
                1.0
            ],
            "translation": [
                4.076245307922363,
                1.0054539442062378,
                5.903861999511719
            ]
        },
        {
            "children": [
                1,
                3,
                0,
                2
            ],
            "matrix": [
                1.0,
                0.0,
                0.0,
                0.0,
                0.0,
                0.0,
                -1.0,
                0.0,
                0.0,
                1.0,
                0.0,
                0.0,
                0.0,
                0.0,
                0.0,
                1.0
            ],
            "name": "Scene_root"
        }
    ],
    "samplers": [
        {
            "name": "default"
        }
    ],
    "scene": 0,
    "scenes": [
        {
            "extras": {
                "active_camera": 0,
                "background_color": [
                    0.05087608844041824,
                    0.05087608844041824,
                    0.05087608844041824
                ],
                "frames_per_second": 24
            },
            "name": "Scene",
            "nodes": [
                4
            ]
        }
    ]
}
